<mxfile host="app.diagrams.net" modified="2024-02-02T05:37:43.707Z" agent="Mozilla/5.0 (Windows NT 10.0; Win64; x64) AppleWebKit/537.36 (KHTML, like Gecko) Chrome/121.0.0.0 Safari/537.36" version="23.1.1" etag="O6Wm4hCI7qR-0fEwH69D" type="github">
  <diagram name="Page-1" id="iHSvcm8wO6kw1Wh7ChQq">
    <mxGraphModel>
      <root>
        <mxCell id="0" />
        <mxCell id="1" parent="0" />
      </root>
    </mxGraphModel>
  </diagram>
</mxfile>
